<?xml version="1.0" encoding="utf-8"?>
<svg xmlns="http://www.w3.org/2000/svg" width="108" height="108" viewBox="18 18 72 72">

	<circle cx="54" cy="54" r="36" />

	<path stroke="white" stroke-width="2" d="
		M 39.09474 31.76842
		L 45.91579 35.30526
		L 45.91579 41.62105
		L 54.75789 46.42105
		L 59.81052 43.89474
		L 66.88421 47.43158
		L 66.88421 55.51579
		L 52.98947 63.34737
		L 52.98947 71.93684
		L 59.81053 75.22105
		L 66.88421 71.93684
		L 66.88421 63.34737
		L 52.98947 55.51579
		L 52.98947 49.70526
		L 44.14737 44.90526
		L 39.09474 47.17895
		L 32.27368 43.38947
		L 32.27368 35.30526
		Z

		M 36.06316 45.49474
		L 36.06316 37.83158
		L 43.42556 34.01404

		M 56.77895 57.65167
		L 56.77895 49.70526
		L 63.97206 45.97550

		M 39.09474 52.51053
		a 2.5 2.5, 0, 0, 0, 0 5
		a 2.5 2.5, 0, 0, 0, 0 -5
		L 39.09474 47.17895

		M 59.81053 36.54211
		a 2.5 2.5, 0, 0, 0, 0 -5
		a 2.5 2.5, 0, 0, 0, 0 5
		L 59.81053 43.89474" />

	<path fill="white" stroke="white" stroke-width="2" d="
		M 40.86316 41.61053
		a 1 1, 0, 0, 0, 0 -2
		a 1 1, 0, 0, 0, 0 2

		M 59.81053 70.64211
		a 3 3, 0, 0, 0, 0 -6
		a 3 3, 0, 0, 0, 0 6

		M 72.71053 43.13684
		a 1.5 1.5, 0, 0, 0, 3 0
		a 1.5 1.5, 0, 0, 0, -3 0
		m 1.5 0
		L 66.88421 47.43158

		M 44.16316 59.30526
		a 1.5 1.5, 0, 0, 0, 3 0
		a 1.5 1.5, 0, 0, 0, -3 0
		m 1.5 0
		L 52.98947 63.34737

		M 42.14211 67.13684
		a 1.5 1.5, 0, 0, 0, 3 0
		a 1.5 1.5, 0, 0, 0, -3 0
		m 1.5 0
		L 52.98947 67.13684

		M 44.41579 75.22105
		a 1.5 1.5, 0, 0, 0, 3 0
		a 1.5 1.5, 0, 0, 0, -3 0
		m 1.5 0
		L 52.98947 71.93684" />
</svg>
